STARTFONT 2.1
FONT -Monotype-Century Gothic-Regular-R-Normal--10-100-72-72-P-45-iso8859-1
SIZE 10 72 72
FONTBOUNDINGBOX 13 13 -1 -3

STARTPROPERTIES 22
FOUNDRY "Monotype"
FAMILY_NAME "Century Gothic"
WEIGHT_NAME "Regular"
SLANT "R"
SETWIDTH_NAME "Normal"
ADD_STYLE_NAME ""
PIXEL_SIZE 10
POINT_SIZE 100
RESOLUTION_X 72
RESOLUTION_Y 72
SPACING "P"
AVERAGE_WIDTH 45
CHARSET_REGISTRY "iso8859"
CHARSET_ENCODING "1"
COPYRIGHT "Copyright (c) 1996 Monotype Typography Ltd."
CAP_HEIGHT 9
X_HEIGHT 6
WEIGHT 10
QUAD_WIDTH 7
DEFAULT_CHAR 32
FONT_DESCENT 3
FONT_ASCENT 10
ENDPROPERTIES

CHARS 191

STARTCHAR space
ENCODING 32
SWIDTH 277 0
DWIDTH 4 0
BBX 0 0 0 0
BITMAP
ENDCHAR

STARTCHAR exclam
ENCODING 33
SWIDTH 295 0
DWIDTH 3 0
BBX 1 7 1 0
BITMAP
80
80
80
80
80
00
80
ENDCHAR

STARTCHAR quotedbl
ENCODING 34
SWIDTH 309 0
DWIDTH 3 0
BBX 3 3 0 4
BITMAP
A0
A0
A0
ENDCHAR

STARTCHAR numbersign
ENCODING 35
SWIDTH 720 0
DWIDTH 7 0
BBX 5 8 1 0
BITMAP
28
28
F8
50
F8
A0
A0
A0
ENDCHAR

STARTCHAR dollar
ENCODING 36
SWIDTH 554 0
DWIDTH 6 0
BBX 5 9 0 -1
BITMAP
20
70
A8
A0
70
28
A8
70
20
ENDCHAR

STARTCHAR percent
ENCODING 37
SWIDTH 775 0
DWIDTH 8 0
BBX 8 8 0 0
BITMAP
66
9C
94
68
16
19
29
46
ENDCHAR

STARTCHAR ampersand
ENCODING 38
SWIDTH 757 0
DWIDTH 8 0
BBX 6 7 1 0
BITMAP
70
50
20
60
94
88
74
ENDCHAR

STARTCHAR quoteright
ENCODING 39
SWIDTH 351 0
DWIDTH 4 0
BBX 2 3 1 4
BITMAP
40
40
80
ENDCHAR

STARTCHAR parenleft
ENCODING 40
SWIDTH 369 0
DWIDTH 4 0
BBX 2 10 1 -2
BITMAP
40
40
80
80
80
80
80
80
40
40
ENDCHAR

STARTCHAR parenright
ENCODING 41
SWIDTH 369 0
DWIDTH 4 0
BBX 2 10 1 -2
BITMAP
80
80
40
40
40
40
40
40
80
80
ENDCHAR

STARTCHAR asterisk
ENCODING 42
SWIDTH 425 0
DWIDTH 4 0
BBX 4 4 0 3
BITMAP
40
70
E0
20
ENDCHAR

STARTCHAR plus
ENCODING 43
SWIDTH 606 0
DWIDTH 6 0
BBX 5 5 1 1
BITMAP
20
20
F8
20
20
ENDCHAR

STARTCHAR comma
ENCODING 44
SWIDTH 277 0
DWIDTH 3 0
BBX 2 3 1 -1
BITMAP
40
40
80
ENDCHAR

STARTCHAR minus
ENCODING 45
SWIDTH 606 0
DWIDTH 6 0
BBX 5 1 1 3
BITMAP
F8
ENDCHAR

STARTCHAR period
ENCODING 46
SWIDTH 277 0
DWIDTH 3 0
BBX 1 1 1 0
BITMAP
80
ENDCHAR

STARTCHAR slash
ENCODING 47
SWIDTH 437 0
DWIDTH 4 0
BBX 4 9 0 -2
BITMAP
10
10
20
20
20
40
40
80
80
ENDCHAR

STARTCHAR zero
ENCODING 48
SWIDTH 554 0
DWIDTH 6 0
BBX 5 7 1 0
BITMAP
70
88
88
88
88
88
70
ENDCHAR

STARTCHAR one
ENCODING 49
SWIDTH 554 0
DWIDTH 6 0
BBX 2 7 2 0
BITMAP
C0
40
40
40
40
40
40
ENDCHAR

STARTCHAR two
ENCODING 50
SWIDTH 554 0
DWIDTH 6 0
BBX 5 7 1 0
BITMAP
70
88
08
10
20
40
F8
ENDCHAR

STARTCHAR three
ENCODING 51
SWIDTH 554 0
DWIDTH 6 0
BBX 5 7 1 0
BITMAP
70
88
08
30
08
88
70
ENDCHAR

STARTCHAR four
ENCODING 52
SWIDTH 554 0
DWIDTH 6 0
BBX 5 7 1 0
BITMAP
10
30
50
90
F8
10
10
ENDCHAR

STARTCHAR five
ENCODING 53
SWIDTH 554 0
DWIDTH 6 0
BBX 5 7 1 0
BITMAP
78
40
70
48
08
88
70
ENDCHAR

STARTCHAR six
ENCODING 54
SWIDTH 554 0
DWIDTH 6 0
BBX 5 7 1 0
BITMAP
10
20
40
70
88
88
70
ENDCHAR

STARTCHAR seven
ENCODING 55
SWIDTH 554 0
DWIDTH 6 0
BBX 4 7 1 0
BITMAP
F0
10
20
20
40
40
80
ENDCHAR

STARTCHAR eight
ENCODING 56
SWIDTH 554 0
DWIDTH 6 0
BBX 5 7 1 0
BITMAP
70
88
88
70
88
88
70
ENDCHAR

STARTCHAR nine
ENCODING 57
SWIDTH 554 0
DWIDTH 6 0
BBX 5 7 1 0
BITMAP
70
88
88
70
10
20
40
ENDCHAR

STARTCHAR colon
ENCODING 58
SWIDTH 277 0
DWIDTH 3 0
BBX 1 5 1 0
BITMAP
80
00
00
00
80
ENDCHAR

STARTCHAR semicolon
ENCODING 59
SWIDTH 277 0
DWIDTH 3 0
BBX 2 6 1 -1
BITMAP
40
00
00
40
40
80
ENDCHAR

STARTCHAR less
ENCODING 60
SWIDTH 606 0
DWIDTH 6 0
BBX 5 5 1 1
BITMAP
18
20
C0
20
18
ENDCHAR

STARTCHAR equal
ENCODING 61
SWIDTH 606 0
DWIDTH 6 0
BBX 5 3 1 2
BITMAP
F8
00
F8
ENDCHAR

STARTCHAR greater
ENCODING 62
SWIDTH 606 0
DWIDTH 6 0
BBX 5 5 1 1
BITMAP
C0
20
18
20
C0
ENDCHAR

STARTCHAR question
ENCODING 63
SWIDTH 591 0
DWIDTH 6 0
BBX 4 7 1 0
BITMAP
60
90
10
60
80
60
40
ENDCHAR

STARTCHAR at
ENCODING 64
SWIDTH 867 0
DWIDTH 9 0
BBX 8 8 1 0
BITMAP
3C
42
9D
A5
A5
9F
40
3C
ENDCHAR

STARTCHAR A
ENCODING 65
SWIDTH 740 0
DWIDTH 7 0
BBX 7 7 0 0
BITMAP
10
10
28
44
7C
82
82
ENDCHAR

STARTCHAR B
ENCODING 66
SWIDTH 574 0
DWIDTH 6 0
BBX 5 7 1 0
BITMAP
E0
90
90
F0
88
88
F0
ENDCHAR

STARTCHAR C
ENCODING 67
SWIDTH 813 0
DWIDTH 8 0
BBX 7 7 1 0
BITMAP
3C
42
80
80
80
42
3C
ENDCHAR

STARTCHAR D
ENCODING 68
SWIDTH 744 0
DWIDTH 7 0
BBX 6 7 1 0
BITMAP
F0
88
84
84
84
88
F0
ENDCHAR

STARTCHAR E
ENCODING 69
SWIDTH 536 0
DWIDTH 5 0
BBX 4 7 1 0
BITMAP
F0
80
80
F0
80
80
F0
ENDCHAR

STARTCHAR F
ENCODING 70
SWIDTH 485 0
DWIDTH 5 0
BBX 4 7 1 0
BITMAP
F0
80
80
F0
80
80
80
ENDCHAR

STARTCHAR G
ENCODING 71
SWIDTH 872 0
DWIDTH 9 0
BBX 7 7 1 0
BITMAP
3C
42
80
8E
82
42
3C
ENDCHAR

STARTCHAR H
ENCODING 72
SWIDTH 683 0
DWIDTH 7 0
BBX 5 7 1 0
BITMAP
88
88
88
F8
88
88
88
ENDCHAR

STARTCHAR I
ENCODING 73
SWIDTH 226 0
DWIDTH 2 0
BBX 1 7 1 0
BITMAP
80
80
80
80
80
80
80
ENDCHAR

STARTCHAR J
ENCODING 74
SWIDTH 482 0
DWIDTH 5 0
BBX 4 7 1 0
BITMAP
10
10
10
10
10
90
60
ENDCHAR

STARTCHAR K
ENCODING 75
SWIDTH 591 0
DWIDTH 6 0
BBX 5 7 1 0
BITMAP
88
90
A0
C0
A0
90
88
ENDCHAR

STARTCHAR L
ENCODING 76
SWIDTH 463 0
DWIDTH 5 0
BBX 4 7 1 0
BITMAP
80
80
80
80
80
80
F0
ENDCHAR

STARTCHAR M
ENCODING 77
SWIDTH 919 0
DWIDTH 9 0
BBX 9 7 0 0
BITMAP
4100
4100
6300
5500
9480
8880
8880
ENDCHAR

STARTCHAR N
ENCODING 78
SWIDTH 740 0
DWIDTH 7 0
BBX 6 7 1 0
BITMAP
84
C4
A4
B4
94
8C
84
ENDCHAR

STARTCHAR O
ENCODING 79
SWIDTH 869 0
DWIDTH 9 0
BBX 8 7 1 0
BITMAP
3C
42
81
81
81
42
3C
ENDCHAR

STARTCHAR P
ENCODING 80
SWIDTH 592 0
DWIDTH 6 0
BBX 5 7 1 0
BITMAP
F0
88
88
F0
80
80
80
ENDCHAR

STARTCHAR Q
ENCODING 81
SWIDTH 871 0
DWIDTH 9 0
BBX 8 7 1 0
BITMAP
3C
42
81
81
89
46
3D
ENDCHAR

STARTCHAR R
ENCODING 82
SWIDTH 607 0
DWIDTH 6 0
BBX 5 7 1 0
BITMAP
F0
88
88
F0
A0
90
88
ENDCHAR

STARTCHAR S
ENCODING 83
SWIDTH 498 0
DWIDTH 5 0
BBX 4 7 1 0
BITMAP
60
90
80
60
10
90
60
ENDCHAR

STARTCHAR T
ENCODING 84
SWIDTH 426 0
DWIDTH 4 0
BBX 3 7 1 0
BITMAP
E0
40
40
40
40
40
40
ENDCHAR

STARTCHAR U
ENCODING 85
SWIDTH 655 0
DWIDTH 7 0
BBX 5 7 1 0
BITMAP
88
88
88
88
88
88
70
ENDCHAR

STARTCHAR V
ENCODING 86
SWIDTH 702 0
DWIDTH 7 0
BBX 5 7 1 0
BITMAP
88
88
88
50
50
20
20
ENDCHAR

STARTCHAR W
ENCODING 87
SWIDTH 960 0
DWIDTH 10 0
BBX 9 7 1 0
BITMAP
8880
8880
8880
5500
5500
2200
2200
ENDCHAR

STARTCHAR X
ENCODING 88
SWIDTH 609 0
DWIDTH 6 0
BBX 5 7 1 0
BITMAP
88
88
50
20
50
88
88
ENDCHAR

STARTCHAR Y
ENCODING 89
SWIDTH 592 0
DWIDTH 6 0
BBX 5 7 1 0
BITMAP
88
88
50
20
20
20
20
ENDCHAR

STARTCHAR Z
ENCODING 90
SWIDTH 480 0
DWIDTH 5 0
BBX 4 7 1 0
BITMAP
F0
10
20
20
40
40
F0
ENDCHAR

STARTCHAR bracketleft
ENCODING 91
SWIDTH 351 0
DWIDTH 4 0
BBX 2 9 1 -2
BITMAP
C0
80
80
80
80
80
80
80
C0
ENDCHAR

STARTCHAR backslash
ENCODING 92
SWIDTH 605 0
DWIDTH 6 0
BBX 5 8 1 -1
BITMAP
80
80
40
20
20
10
08
08
ENDCHAR

STARTCHAR bracketright
ENCODING 93
SWIDTH 351 0
DWIDTH 4 0
BBX 2 9 1 -2
BITMAP
C0
40
40
40
40
40
40
40
C0
ENDCHAR

STARTCHAR asciicircum
ENCODING 94
SWIDTH 672 0
DWIDTH 7 0
BBX 5 6 1 1
BITMAP
20
20
50
50
88
88
ENDCHAR

STARTCHAR underscore
ENCODING 95
SWIDTH 500 0
DWIDTH 5 0
BBX 5 1 0 -2
BITMAP
F8
ENDCHAR

STARTCHAR quoteleft
ENCODING 96
SWIDTH 351 0
DWIDTH 4 0
BBX 2 3 1 4
BITMAP
40
80
80
ENDCHAR

STARTCHAR a
ENCODING 97
SWIDTH 683 0
DWIDTH 7 0
BBX 6 5 1 0
BITMAP
74
8C
84
8C
74
ENDCHAR

STARTCHAR b
ENCODING 98
SWIDTH 682 0
DWIDTH 7 0
BBX 6 7 1 0
BITMAP
80
80
B8
C4
84
C4
B8
ENDCHAR

STARTCHAR c
ENCODING 99
SWIDTH 647 0
DWIDTH 6 0
BBX 5 5 1 0
BITMAP
70
88
80
88
70
ENDCHAR

STARTCHAR d
ENCODING 100
SWIDTH 685 0
DWIDTH 7 0
BBX 6 7 1 0
BITMAP
04
04
74
8C
84
8C
74
ENDCHAR

STARTCHAR e
ENCODING 101
SWIDTH 650 0
DWIDTH 6 0
BBX 5 5 1 0
BITMAP
70
88
F0
88
70
ENDCHAR

STARTCHAR f
ENCODING 102
SWIDTH 314 0
DWIDTH 3 0
BBX 3 7 0 0
BITMAP
60
40
E0
40
40
40
40
ENDCHAR

STARTCHAR g
ENCODING 103
SWIDTH 673 0
DWIDTH 7 0
BBX 6 7 1 -2
BITMAP
74
8C
84
8C
74
84
78
ENDCHAR

STARTCHAR h
ENCODING 104
SWIDTH 610 0
DWIDTH 6 0
BBX 5 7 1 0
BITMAP
80
80
B0
C8
88
88
88
ENDCHAR

STARTCHAR i
ENCODING 105
SWIDTH 200 0
DWIDTH 2 0
BBX 1 7 1 0
BITMAP
80
00
80
80
80
80
80
ENDCHAR

STARTCHAR j
ENCODING 106
SWIDTH 203 0
DWIDTH 2 0
BBX 2 9 0 -2
BITMAP
40
00
40
40
40
40
40
40
C0
ENDCHAR

STARTCHAR k
ENCODING 107
SWIDTH 502 0
DWIDTH 5 0
BBX 4 7 1 0
BITMAP
80
80
90
A0
C0
A0
90
ENDCHAR

STARTCHAR l
ENCODING 108
SWIDTH 200 0
DWIDTH 2 0
BBX 1 7 1 0
BITMAP
80
80
80
80
80
80
80
ENDCHAR

STARTCHAR m
ENCODING 109
SWIDTH 938 0
DWIDTH 9 0
BBX 9 5 0 0
BITMAP
B300
CC80
8880
8880
8880
ENDCHAR

STARTCHAR n
ENCODING 110
SWIDTH 610 0
DWIDTH 6 0
BBX 5 5 1 0
BITMAP
B0
C8
88
88
88
ENDCHAR

STARTCHAR o
ENCODING 111
SWIDTH 655 0
DWIDTH 7 0
BBX 5 5 1 0
BITMAP
70
88
88
88
70
ENDCHAR

STARTCHAR p
ENCODING 112
SWIDTH 682 0
DWIDTH 7 0
BBX 6 7 1 -2
BITMAP
B8
C4
84
C4
B8
80
80
ENDCHAR

STARTCHAR q
ENCODING 113
SWIDTH 682 0
DWIDTH 7 0
BBX 6 7 1 -2
BITMAP
74
8C
84
8C
74
04
04
ENDCHAR

STARTCHAR r
ENCODING 114
SWIDTH 301 0
DWIDTH 3 0
BBX 3 5 0 0
BITMAP
A0
C0
80
80
80
ENDCHAR

STARTCHAR s
ENCODING 115
SWIDTH 388 0
DWIDTH 4 0
BBX 4 5 0 0
BITMAP
70
80
60
10
E0
ENDCHAR

STARTCHAR t
ENCODING 116
SWIDTH 339 0
DWIDTH 3 0
BBX 3 7 0 0
BITMAP
40
40
E0
40
40
40
40
ENDCHAR

STARTCHAR u
ENCODING 117
SWIDTH 608 0
DWIDTH 6 0
BBX 5 5 1 0
BITMAP
88
88
88
88
70
ENDCHAR

STARTCHAR v
ENCODING 118
SWIDTH 554 0
DWIDTH 6 0
BBX 5 5 1 0
BITMAP
88
88
50
20
20
ENDCHAR

STARTCHAR w
ENCODING 119
SWIDTH 831 0
DWIDTH 8 0
BBX 7 5 1 0
BITMAP
92
92
AA
44
44
ENDCHAR

STARTCHAR x
ENCODING 120
SWIDTH 480 0
DWIDTH 5 0
BBX 5 5 0 0
BITMAP
88
50
20
50
88
ENDCHAR

STARTCHAR y
ENCODING 121
SWIDTH 536 0
DWIDTH 5 0
BBX 5 7 0 -2
BITMAP
88
88
50
20
20
40
40
ENDCHAR

STARTCHAR z
ENCODING 122
SWIDTH 425 0
DWIDTH 4 0
BBX 4 5 0 0
BITMAP
F0
20
20
40
F0
ENDCHAR

STARTCHAR braceleft
ENCODING 123
SWIDTH 351 0
DWIDTH 4 0
BBX 3 10 1 -3
BITMAP
20
40
40
40
80
80
40
40
40
20
ENDCHAR

STARTCHAR bar
ENCODING 124
SWIDTH 672 0
DWIDTH 7 0
BBX 1 9 3 -2
BITMAP
80
80
80
80
80
80
80
80
80
ENDCHAR

STARTCHAR braceright
ENCODING 125
SWIDTH 351 0
DWIDTH 4 0
BBX 3 10 1 -3
BITMAP
80
40
40
40
20
20
40
40
40
80
ENDCHAR

STARTCHAR asciitilde
ENCODING 126
SWIDTH 606 0
DWIDTH 6 0
BBX 5 2 1 3
BITMAP
68
90
ENDCHAR

STARTCHAR space
ENCODING 160
SWIDTH 277 0
DWIDTH 3 0
BBX 0 0 0 0
BITMAP
ENDCHAR

STARTCHAR exclamdown
ENCODING 161
SWIDTH 295 0
DWIDTH 3 0
BBX 1 7 1 -2
BITMAP
80
00
80
80
80
80
80
ENDCHAR

STARTCHAR cent
ENCODING 162
SWIDTH 554 0
DWIDTH 6 0
BBX 5 7 1 -1
BITMAP
08
70
98
A0
C8
70
80
ENDCHAR

STARTCHAR sterling
ENCODING 163
SWIDTH 554 0
DWIDTH 6 0
BBX 5 7 1 0
BITMAP
30
48
40
F0
20
A8
D8
ENDCHAR

STARTCHAR currency
ENCODING 164
SWIDTH 554 0
DWIDTH 6 0
BBX 5 5 1 1
BITMAP
A8
50
88
50
A8
ENDCHAR

STARTCHAR yen
ENCODING 165
SWIDTH 554 0
DWIDTH 6 0
BBX 5 7 1 0
BITMAP
88
88
50
F8
20
F8
20
ENDCHAR

STARTCHAR brokenbar
ENCODING 166
SWIDTH 672 0
DWIDTH 7 0
BBX 1 9 3 -2
BITMAP
80
80
80
00
00
00
80
80
80
ENDCHAR

STARTCHAR section
ENCODING 167
SWIDTH 615 0
DWIDTH 6 0
BBX 4 10 1 -2
BITMAP
60
90
80
60
90
90
60
10
90
60
ENDCHAR

STARTCHAR dieresis
ENCODING 168
SWIDTH 369 0
DWIDTH 4 0
BBX 3 1 1 6
BITMAP
A0
ENDCHAR

STARTCHAR copyright
ENCODING 169
SWIDTH 747 0
DWIDTH 7 0
BBX 8 7 0 0
BITMAP
3C
5A
A5
A1
A5
5A
3C
ENDCHAR

STARTCHAR ordfeminine
ENCODING 170
SWIDTH 369 0
DWIDTH 4 0
BBX 3 4 1 3
BITMAP
60
A0
A0
60
ENDCHAR

STARTCHAR guillemotleft
ENCODING 171
SWIDTH 425 0
DWIDTH 4 0
BBX 4 5 0 0
BITMAP
50
50
A0
50
50
ENDCHAR

STARTCHAR logicalnot
ENCODING 172
SWIDTH 606 0
DWIDTH 6 0
BBX 5 3 1 2
BITMAP
F8
08
08
ENDCHAR

STARTCHAR hyphen
ENCODING 173
SWIDTH 332 0
DWIDTH 3 0
BBX 3 1 0 2
BITMAP
E0
ENDCHAR

STARTCHAR registered
ENCODING 174
SWIDTH 747 0
DWIDTH 7 0
BBX 8 8 0 -1
BITMAP
3C
42
79
A5
B9
A5
46
38
ENDCHAR

STARTCHAR macron
ENCODING 175
SWIDTH 485 0
DWIDTH 5 0
BBX 3 1 1 6
BITMAP
E0
ENDCHAR

STARTCHAR degree
ENCODING 176
SWIDTH 400 0
DWIDTH 4 0
BBX 4 4 0 3
BITMAP
60
90
90
60
ENDCHAR

STARTCHAR plusminus
ENCODING 177
SWIDTH 606 0
DWIDTH 6 0
BBX 5 7 1 0
BITMAP
20
20
F8
20
20
00
F8
ENDCHAR

STARTCHAR twosuperior
ENCODING 178
SWIDTH 332 0
DWIDTH 3 0
BBX 3 4 0 3
BITMAP
C0
20
40
E0
ENDCHAR

STARTCHAR threesuperior
ENCODING 179
SWIDTH 332 0
DWIDTH 3 0
BBX 3 4 0 3
BITMAP
C0
60
20
C0
ENDCHAR

STARTCHAR acute
ENCODING 180
SWIDTH 375 0
DWIDTH 4 0
BBX 2 2 1 6
BITMAP
40
80
ENDCHAR

STARTCHAR mu
ENCODING 181
SWIDTH 608 0
DWIDTH 6 0
BBX 5 7 1 -2
BITMAP
88
88
88
88
B0
80
80
ENDCHAR

STARTCHAR paragraph
ENCODING 182
SWIDTH 564 0
DWIDTH 6 0
BBX 5 9 0 -1
BITMAP
78
E8
E8
68
28
28
28
28
28
ENDCHAR

STARTCHAR periodcentered
ENCODING 183
SWIDTH 277 0
DWIDTH 3 0
BBX 1 1 1 3
BITMAP
80
ENDCHAR

STARTCHAR cedilla
ENCODING 184
SWIDTH 324 0
DWIDTH 3 0
BBX 2 2 1 -2
BITMAP
40
C0
ENDCHAR

STARTCHAR onesuperior
ENCODING 185
SWIDTH 332 0
DWIDTH 3 0
BBX 1 4 1 3
BITMAP
80
80
80
80
ENDCHAR

STARTCHAR ordmasculine
ENCODING 186
SWIDTH 369 0
DWIDTH 4 0
BBX 4 4 0 3
BITMAP
60
90
90
60
ENDCHAR

STARTCHAR guillemotright
ENCODING 187
SWIDTH 425 0
DWIDTH 4 0
BBX 4 5 0 0
BITMAP
A0
A0
50
A0
A0
ENDCHAR

STARTCHAR onequarter
ENCODING 188
SWIDTH 831 0
DWIDTH 8 0
BBX 7 8 1 -1
BITMAP
88
88
90
A2
26
4E
82
80
ENDCHAR

STARTCHAR onehalf
ENCODING 189
SWIDTH 831 0
DWIDTH 8 0
BBX 7 8 1 -1
BITMAP
88
88
90
AC
22
44
8E
80
ENDCHAR

STARTCHAR threequarters
ENCODING 190
SWIDTH 831 0
DWIDTH 8 0
BBX 8 8 0 -1
BITMAP
E4
44
28
D1
13
27
41
40
ENDCHAR

STARTCHAR questiondown
ENCODING 191
SWIDTH 591 0
DWIDTH 6 0
BBX 4 7 1 -2
BITMAP
20
60
10
60
80
90
60
ENDCHAR

STARTCHAR Agrave
ENCODING 192
SWIDTH 740 0
DWIDTH 7 0
BBX 7 10 0 0
BITMAP
10
08
00
10
10
28
44
7C
82
82
ENDCHAR

STARTCHAR Aacute
ENCODING 193
SWIDTH 740 0
DWIDTH 7 0
BBX 7 10 0 0
BITMAP
08
10
00
10
10
28
44
7C
82
82
ENDCHAR

STARTCHAR Acircumflex
ENCODING 194
SWIDTH 740 0
DWIDTH 7 0
BBX 7 10 0 0
BITMAP
30
48
00
10
10
28
44
7C
82
82
ENDCHAR

STARTCHAR Atilde
ENCODING 195
SWIDTH 740 0
DWIDTH 7 0
BBX 7 10 0 0
BITMAP
14
28
00
10
10
28
44
7C
82
82
ENDCHAR

STARTCHAR Adieresis
ENCODING 196
SWIDTH 740 0
DWIDTH 7 0
BBX 7 9 0 0
BITMAP
28
00
10
10
28
64
7C
82
82
ENDCHAR

STARTCHAR Aring
ENCODING 197
SWIDTH 740 0
DWIDTH 7 0
BBX 7 10 0 0
BITMAP
10
28
10
10
10
28
44
7C
82
82
ENDCHAR

STARTCHAR AE
ENCODING 198
SWIDTH 992 0
DWIDTH 10 0
BBX 9 7 1 0
BITMAP
0780
0C00
1400
3780
3C00
4400
8780
ENDCHAR

STARTCHAR Ccedilla
ENCODING 199
SWIDTH 813 0
DWIDTH 8 0
BBX 7 9 1 -2
BITMAP
3C
42
80
80
80
42
3C
08
10
ENDCHAR

STARTCHAR Egrave
ENCODING 200
SWIDTH 536 0
DWIDTH 5 0
BBX 4 10 1 0
BITMAP
40
20
00
F0
80
80
F0
80
80
F0
ENDCHAR

STARTCHAR Eacute
ENCODING 201
SWIDTH 536 0
DWIDTH 5 0
BBX 4 10 1 0
BITMAP
20
40
00
F0
80
80
F0
80
80
F0
ENDCHAR

STARTCHAR Ecircumflex
ENCODING 202
SWIDTH 536 0
DWIDTH 5 0
BBX 4 10 1 0
BITMAP
60
90
00
F0
80
80
F0
80
80
F0
ENDCHAR

STARTCHAR Edieresis
ENCODING 203
SWIDTH 536 0
DWIDTH 5 0
BBX 4 9 1 0
BITMAP
A0
00
F0
80
80
F0
80
80
F0
ENDCHAR

STARTCHAR Igrave
ENCODING 204
SWIDTH 226 0
DWIDTH 2 0
BBX 2 10 0 0
BITMAP
80
40
00
40
40
40
40
40
40
40
ENDCHAR

STARTCHAR Iacute
ENCODING 205
SWIDTH 226 0
DWIDTH 2 0
BBX 2 10 1 0
BITMAP
40
80
00
80
80
80
80
80
80
80
ENDCHAR

STARTCHAR Icircumflex
ENCODING 206
SWIDTH 226 0
DWIDTH 2 0
BBX 4 10 -1 0
BITMAP
60
90
00
20
20
20
20
20
20
20
ENDCHAR

STARTCHAR Idieresis
ENCODING 207
SWIDTH 226 0
DWIDTH 2 0
BBX 3 9 0 0
BITMAP
A0
00
40
40
40
40
40
40
40
ENDCHAR

STARTCHAR Eth
ENCODING 208
SWIDTH 790 0
DWIDTH 8 0
BBX 8 7 0 0
BITMAP
7C
42
41
F1
41
42
7C
ENDCHAR

STARTCHAR Ntilde
ENCODING 209
SWIDTH 740 0
DWIDTH 7 0
BBX 6 10 1 0
BITMAP
28
50
00
84
84
E4
B4
8C
84
84
ENDCHAR

STARTCHAR Ograve
ENCODING 210
SWIDTH 869 0
DWIDTH 9 0
BBX 8 10 1 0
BITMAP
10
08
00
3C
42
81
81
81
42
3C
ENDCHAR

STARTCHAR Oacute
ENCODING 211
SWIDTH 869 0
DWIDTH 9 0
BBX 8 10 1 0
BITMAP
08
10
00
3C
42
81
81
81
42
3C
ENDCHAR

STARTCHAR Ocircumflex
ENCODING 212
SWIDTH 869 0
DWIDTH 9 0
BBX 8 10 1 0
BITMAP
18
24
00
3C
42
81
81
81
42
3C
ENDCHAR

STARTCHAR Otilde
ENCODING 213
SWIDTH 869 0
DWIDTH 9 0
BBX 8 10 1 0
BITMAP
14
28
00
3C
42
81
81
81
42
3C
ENDCHAR

STARTCHAR Odieresis
ENCODING 214
SWIDTH 869 0
DWIDTH 9 0
BBX 8 9 1 0
BITMAP
14
00
3C
42
81
81
81
42
3C
ENDCHAR

STARTCHAR multiply
ENCODING 215
SWIDTH 606 0
DWIDTH 6 0
BBX 4 4 1 2
BITMAP
90
60
60
90
ENDCHAR

STARTCHAR Oslash
ENCODING 216
SWIDTH 868 0
DWIDTH 9 0
BBX 8 7 1 0
BITMAP
3D
42
85
89
91
62
DC
ENDCHAR

STARTCHAR Ugrave
ENCODING 217
SWIDTH 655 0
DWIDTH 7 0
BBX 5 10 1 0
BITMAP
40
20
00
88
88
88
88
88
88
70
ENDCHAR

STARTCHAR Uacute
ENCODING 218
SWIDTH 655 0
DWIDTH 7 0
BBX 5 10 1 0
BITMAP
10
20
00
88
88
88
88
88
88
70
ENDCHAR

STARTCHAR Ucircumflex
ENCODING 219
SWIDTH 655 0
DWIDTH 7 0
BBX 5 10 1 0
BITMAP
30
48
00
88
88
88
88
88
88
70
ENDCHAR

STARTCHAR Udieresis
ENCODING 220
SWIDTH 655 0
DWIDTH 7 0
BBX 5 9 1 0
BITMAP
50
00
88
88
88
88
88
88
70
ENDCHAR

STARTCHAR Yacute
ENCODING 221
SWIDTH 592 0
DWIDTH 6 0
BBX 5 10 0 0
BITMAP
10
20
00
88
50
50
20
20
20
20
ENDCHAR

STARTCHAR Thorn
ENCODING 222
SWIDTH 592 0
DWIDTH 6 0
BBX 5 7 1 0
BITMAP
80
80
F0
88
88
F0
80
ENDCHAR

STARTCHAR germandbls
ENCODING 223
SWIDTH 554 0
DWIDTH 6 0
BBX 4 8 1 0
BITMAP
60
90
90
A0
90
90
90
E0
ENDCHAR

STARTCHAR agrave
ENCODING 224
SWIDTH 683 0
DWIDTH 7 0
BBX 6 8 1 0
BITMAP
10
08
00
74
8C
84
8C
74
ENDCHAR

STARTCHAR aacute
ENCODING 225
SWIDTH 683 0
DWIDTH 7 0
BBX 6 8 1 0
BITMAP
08
10
00
74
8C
84
8C
74
ENDCHAR

STARTCHAR acircumflex
ENCODING 226
SWIDTH 683 0
DWIDTH 7 0
BBX 6 8 1 0
BITMAP
30
48
00
74
8C
84
8C
74
ENDCHAR

STARTCHAR atilde
ENCODING 227
SWIDTH 683 0
DWIDTH 7 0
BBX 6 8 1 0
BITMAP
28
50
00
74
8C
84
8C
74
ENDCHAR

STARTCHAR adieresis
ENCODING 228
SWIDTH 683 0
DWIDTH 7 0
BBX 6 7 1 0
BITMAP
28
00
74
8C
84
8C
74
ENDCHAR

STARTCHAR aring
ENCODING 229
SWIDTH 683 0
DWIDTH 7 0
BBX 6 9 1 0
BITMAP
20
50
20
00
74
8C
84
8C
74
ENDCHAR

STARTCHAR ae
ENCODING 230
SWIDTH 1157 0
DWIDTH 12 0
BBX 11 5 1 0
BITMAP
7BC0
8C20
87C0
8E20
75C0
ENDCHAR

STARTCHAR ccedilla
ENCODING 231
SWIDTH 647 0
DWIDTH 6 0
BBX 5 7 1 -2
BITMAP
70
88
80
88
70
20
40
ENDCHAR

STARTCHAR egrave
ENCODING 232
SWIDTH 650 0
DWIDTH 6 0
BBX 5 8 1 0
BITMAP
40
20
00
70
88
F0
88
70
ENDCHAR

STARTCHAR eacute
ENCODING 233
SWIDTH 650 0
DWIDTH 6 0
BBX 5 8 1 0
BITMAP
20
40
00
70
88
F0
88
70
ENDCHAR

STARTCHAR ecircumflex
ENCODING 234
SWIDTH 650 0
DWIDTH 6 0
BBX 5 8 1 0
BITMAP
60
90
00
70
88
F0
88
70
ENDCHAR

STARTCHAR edieresis
ENCODING 235
SWIDTH 650 0
DWIDTH 6 0
BBX 5 7 1 0
BITMAP
50
00
70
88
F0
88
70
ENDCHAR

STARTCHAR igrave
ENCODING 236
SWIDTH 200 0
DWIDTH 2 0
BBX 2 8 0 0
BITMAP
80
40
00
40
40
40
40
40
ENDCHAR

STARTCHAR iacute
ENCODING 237
SWIDTH 200 0
DWIDTH 2 0
BBX 2 8 1 0
BITMAP
40
80
00
80
80
80
80
80
ENDCHAR

STARTCHAR icircumflex
ENCODING 238
SWIDTH 200 0
DWIDTH 2 0
BBX 4 8 -1 0
BITMAP
60
90
00
20
20
20
20
20
ENDCHAR

STARTCHAR idieresis
ENCODING 239
SWIDTH 200 0
DWIDTH 2 0
BBX 3 7 0 0
BITMAP
A0
00
40
40
40
40
40
ENDCHAR

STARTCHAR eth
ENCODING 240
SWIDTH 655 0
DWIDTH 7 0
BBX 5 8 1 0
BITMAP
28
30
08
78
88
88
88
70
ENDCHAR

STARTCHAR ntilde
ENCODING 241
SWIDTH 610 0
DWIDTH 6 0
BBX 5 8 1 0
BITMAP
50
A0
00
F0
88
88
88
88
ENDCHAR

STARTCHAR ograve
ENCODING 242
SWIDTH 655 0
DWIDTH 7 0
BBX 5 8 1 0
BITMAP
40
20
00
70
88
88
88
70
ENDCHAR

STARTCHAR oacute
ENCODING 243
SWIDTH 655 0
DWIDTH 7 0
BBX 5 8 1 0
BITMAP
10
20
00
70
88
88
88
70
ENDCHAR

STARTCHAR ocircumflex
ENCODING 244
SWIDTH 655 0
DWIDTH 7 0
BBX 5 8 1 0
BITMAP
30
48
00
70
88
88
88
70
ENDCHAR

STARTCHAR otilde
ENCODING 245
SWIDTH 655 0
DWIDTH 7 0
BBX 5 8 1 0
BITMAP
28
50
00
70
88
88
88
70
ENDCHAR

STARTCHAR odieresis
ENCODING 246
SWIDTH 655 0
DWIDTH 7 0
BBX 5 7 1 0
BITMAP
50
00
70
88
88
88
70
ENDCHAR

STARTCHAR divide
ENCODING 247
SWIDTH 606 0
DWIDTH 6 0
BBX 5 5 1 1
BITMAP
20
00
F8
00
20
ENDCHAR

STARTCHAR oslash
ENCODING 248
SWIDTH 653 0
DWIDTH 7 0
BBX 5 5 1 0
BITMAP
70
98
A8
C8
70
ENDCHAR

STARTCHAR ugrave
ENCODING 249
SWIDTH 608 0
DWIDTH 6 0
BBX 5 8 1 0
BITMAP
40
20
00
88
88
88
88
70
ENDCHAR

STARTCHAR uacute
ENCODING 250
SWIDTH 608 0
DWIDTH 6 0
BBX 5 8 1 0
BITMAP
20
40
00
88
88
88
88
70
ENDCHAR

STARTCHAR ucircumflex
ENCODING 251
SWIDTH 608 0
DWIDTH 6 0
BBX 5 8 1 0
BITMAP
30
48
00
88
88
88
88
70
ENDCHAR

STARTCHAR udieresis
ENCODING 252
SWIDTH 608 0
DWIDTH 6 0
BBX 5 7 1 0
BITMAP
50
00
88
88
88
88
70
ENDCHAR

STARTCHAR yacute
ENCODING 253
SWIDTH 536 0
DWIDTH 5 0
BBX 5 11 0 -3
BITMAP
10
20
00
88
48
48
30
20
20
20
40
ENDCHAR

STARTCHAR thorn
ENCODING 254
SWIDTH 682 0
DWIDTH 7 0
BBX 6 9 1 -2
BITMAP
80
80
F8
84
84
C4
B8
80
80
ENDCHAR

STARTCHAR ydieresis
ENCODING 255
SWIDTH 536 0
DWIDTH 5 0
BBX 5 10 0 -3
BITMAP
50
00
88
48
48
30
20
20
20
40
ENDCHAR
ENDFONT
